<?xml version="1.0" encoding="utf-8"?>
<!-- Generator: Adobe Illustrator 23.0.1, SVG Export Plug-In . SVG Version: 6.00 Build 0)  -->
<svg version="1.1" id="Layer_1" xmlns="http://www.w3.org/2000/svg" xmlns:xlink="http://www.w3.org/1999/xlink" x="0px" y="0px"
	 viewBox="0 0 264 154" style="enable-background:new 0 0 264 154;" xml:space="preserve">
<style type="text/css">
	.st0{fill:#F1BDAD;}
	.st1{fill:#FF6666;}
	.st2{fill:#FF8F79;}
	.st3{fill:none;stroke:#FF6666;stroke-width:6;stroke-linecap:round;stroke-linejoin:round;stroke-miterlimit:10;}
	.st4{opacity:0.5;fill:#FFFFFF;}
</style>
<path class="st0" d="M230.5,22c-1.2-0.5-2.6-0.4-3.8,0.4c-1.1,0.7-1.8,2-1.8,3.3v12.2h3.1c1.1,0,2,0.9,2,2s-0.9,2-2,2H225V42h-8.6
	c-5.2-6.5-18-21-26.4-21c-2.2,0-4,1.8-4,4c0,1.7,0,5,0.1,8.7c0,3,0.1,6.2,0.1,9.1c-2.1-0.6-5.1-1.7-9.1-3.7
	c-0.9-0.5-18.1-8.1-42.9-23.7c-0.8-0.5-1.6-1-2.4-1.5l-4.7,9.3c-1.5,3-4.5,4.5-6.6,3.4c-2.1-1.1-2.6-4.4-1.1-7.3l4.8-9.3
	c-2.3-1.1-4.7-2.1-7-2.9l-3.2,9.9c-1,3.2-3.7,5.2-6,4.4c-2.3-0.7-3.3-3.9-2.3-7.1l3.2-10C94.8,0.2,82.9,0,79,0
	C61.9,0,45.8,6.5,33.8,18.2C21.7,30,15,45.9,15,63c0,5.4,0.7,10.8,2,16c0,0-0.1,0-0.1,0.1c0.7,1.2,1.6,2.3,2.8,2.9
	c1,0.5,1.4,1.7,0.9,2.7c-0.3,0.7-1.1,1.1-1.8,1.1c-0.3,0-0.6-0.1-0.9-0.2c-2.1-1-3.6-2.8-4.6-4.7C5.3,85.7,0,94.6,0,104.5v3.1
	C0,121.3,12.9,136,35,136s32-0.2,47.9,13.5c5.8,5,18.1,6.1,23.1,0.2c5-5.8,1.7-16.3-4.8-21.4C76.1,108.6,61,108,35.5,108
	c0,0-2.5-1.1-2.5-2.5s1.1-2.5,2.5-2.5h106.2V89.5c0-5-4-9-9-9h-24.2c-1,0-2-0.5-2.5-1.4c-0.6-0.9-0.6-1.9-0.2-2.9
	c1.9-4.2,2.9-8.8,2.9-13.7c0-17.4-15.9-20.9-16.6-21.1c-1.6-0.3-2.7-1.9-2.3-3.6c0.3-1.6,1.9-2.7,3.6-2.3
	c7.4,1.6,21.4,9.2,21.4,26.9c0,4.2-0.6,8.2-1.8,12l19.8,0c8.3,0,15,6.7,15,15V103h102.1c1.3,0,2.5-0.6,3.2-1.6
	c6.6-9,10-19.7,10-30.9C263,49.2,250.3,30.1,230.5,22z M215,67c-6.1,0-9.3-3.1-9.7-3.4c-1.3-1.3-1.3-3.4,0-4.6
	c1.3-1.3,3.3-1.3,4.6,0c0.1,0.1,1.8,1.5,5.1,1.5c3.3,0,5-1.5,5-1.5c1.3-1.3,3.4-1.3,4.6,0c1.3,1.3,1.3,3.4,0,4.6
	C224.3,63.9,221.1,67,215,67z M238.4,79.8h-1.5v1.5c0,1.7-1.3,3-3,3s-3-1.3-3-3v-1.5h-2.2c-1.7,0-3-1.3-3-3s1.3-3,3-3h9.8
	c1.7,0,3,1.3,3,3S240,79.8,238.4,79.8z M256.6,66.2c-1.6,0.5-3.2,0.8-5,0.8c-6.1,0-9.3-3.1-9.7-3.4c-1.3-1.3-1.3-3.4,0-4.6
	c1.3-1.3,3.3-1.3,4.6,0c0.1,0.1,1.8,1.5,5.1,1.5c1.1,0,2.1-0.1,3-0.4c1.7-0.6,3.6,0.4,4.1,2.1C259.3,63.8,258.3,65.7,256.6,66.2z"/>
<path class="st1" d="M139.5,98"/>
<path class="st2" d="M63.2,125.7c2.3,0.5,4.8-1.8,5.5-5l2-9.3c-2.8-0.8-5.6-1.4-8.4-1.9l-2,9.4C59.5,122.1,60.8,125.2,63.2,125.7z"
	/>
<path class="st2" d="M76.1,130.2c2.2,1,5-0.7,6.4-3.7l3.8-8.3c-2.6-1.5-5.2-2.8-7.7-3.9l-4,8.6C73.3,125.9,73.9,129.2,76.1,130.2z"
	/>
<path class="st3" d="M144.7,97.5"/>
<path class="st4" d="M175,103c0-29.1-16.6-34.9-60.7-35c-0.3,2.2-0.8,4.4-1.5,6.5l19.8,0c8.3,0,15,6.7,15,15V103H175z"/>
</svg>
